HIERARCHY
ROOT hip
{
	OFFSET 0.000000 0.000000 0.000000 
	CHANNELS 6 Xposition Yposition Zposition Xrotation Zrotation Yrotation
	JOINT abdomen
	{
		OFFSET 0.000000 3.402643 0.000000 
		CHANNELS 3 Xrotation Zrotation Yrotation
		JOINT chest
		{
			OFFSET 0.000000 8.438565 -0.680529 
			CHANNELS 3 Xrotation Zrotation Yrotation
			JOINT neck
			{
				OFFSET 0.000000 10.207942 -0.272212 
				CHANNELS 3 Xrotation Zrotation Yrotation
				JOINT head
				{
					OFFSET 0.000000 3.130431 0.000000 
					CHANNELS 3 Xrotation Zrotation Yrotation
					End Site
					{
						OFFSET 0.000000 3.130435 0.000000 
					}
				}
			}
			JOINT lCollar
			{
				OFFSET 3.470700 6.669187 -0.816635 
				CHANNELS 3 Yrotation Zrotation Xrotation
				JOINT lShldr
				{
					OFFSET 3.198488 0.000000 0.000000 
					CHANNELS 3 Zrotation Yrotation Xrotation
					JOINT lForeArm
					{
						OFFSET 10.139888 0.000000 0.000000 
						CHANNELS 3 Yrotation Zrotation Xrotation
						JOINT lHand
						{
							OFFSET 8.370511 0.000000 0.000000 
							CHANNELS 3 Zrotation Yrotation Xrotation
							End Site
							{
								OFFSET 4.083176 0.000000 0.000000 
							}
						}
					}
				}
			}
			JOINT rCollar
			{
				OFFSET -3.470700 6.669187 -0.816635 
				CHANNELS 3 Yrotation Zrotation Xrotation
				JOINT rShldr
				{
					OFFSET -3.198488 0.000000 0.000000 
					CHANNELS 3 Zrotation Yrotation Xrotation
					JOINT rForeArm
					{
						OFFSET -10.139888 0.000000 0.000000 
						CHANNELS 3 Yrotation Zrotation Xrotation
						JOINT rHand
						{
							OFFSET -8.370511 0.000000 0.000000 
							CHANNELS 3 Zrotation Yrotation Xrotation
							End Site
							{
								OFFSET -4.083176 0.000000 0.000000 
							}
						}
					}
				}
			}
		}
	}
	JOINT lThigh
	{
		OFFSET 5.308129 -1.633274 1.361059 
		CHANNELS 3 Xrotation Zrotation Yrotation
		JOINT lShin
		{
			OFFSET -2.041588 -20.007561 0.000000 
			CHANNELS 3 Xrotation Zrotation Yrotation
			JOINT lFoot
			{
				OFFSET 0.000000 -19.190928 -1.224953 
				CHANNELS 3 Xrotation Yrotation Zrotation
				End Site
				{
					OFFSET 0.000000 -2.449906 4.627600 
				}
			}
		}
	}
	JOINT rThigh
	{
		OFFSET -5.308129 -1.633274 1.361059 
		CHANNELS 3 Xrotation Zrotation Yrotation
		JOINT rShin
		{
			OFFSET 2.041588 -20.007561 0.000000 
			CHANNELS 3 Xrotation Zrotation Yrotation
			JOINT rFoot
			{
				OFFSET 0.000000 -19.190928 -1.224953 
				CHANNELS 3 Xrotation Yrotation Zrotation
				End Site
				{
					OFFSET 0.000000 -2.449906 4.627600 
				}
			}
		}
	}
}
MOTION
Frames: 15
Frame Time: 0.033333
0.733125 51.011597 1.847661 1.572266 -0.537109 17.187433 24.130396 -18.091698 4.132318 -17.568359 7.363281 6.250001 51.553619 8.070152 2.616707 -70.156258 5.126953 -22.832033 2.000000 -2.000000 0.000000 -92.167969 -6.064454 -30.899469 -90.677444 0.197540 -2.873386 -16.896593 21.980715 -7.377474 -2.000000 2.000000 0.000000 97.412109 -38.115231 -12.134933 86.421547 0.167136 -2.920705 -2.570969 -38.143322 -14.564521 -11.901052 1.591179 -4.092172 -1.600041 -5.945261 -0.325239 8.558817 9.050864 -0.922258 22.834177 0.933716 -32.661781 6.056770 5.721570 0.731853 7.353860 -7.917438 -6.082269 
1.604607 51.606735 4.130732 1.230469 -0.361328 17.021484 23.737938 -18.582102 4.323488 -17.714844 8.222656 6.583428 51.553619 8.070152 2.616707 -69.179688 3.564453 -23.485722 2.000000 -2.000000 0.000000 -92.324219 -5.761718 -30.615234 -90.677444 0.197540 -2.873386 -16.838383 22.028479 -7.185182 -2.000000 2.000000 0.000000 99.023438 -39.013672 -13.570600 85.880081 0.158098 -2.764776 -2.487181 -38.192005 -14.638658 -10.026808 0.859144 -3.882163 1.913915 -5.905425 -1.059233 6.398849 9.273876 -1.304172 16.192648 -7.021802 -33.355591 20.499418 5.109019 2.294393 36.032700 -2.021930 -8.118567 
2.221417 52.058739 6.267385 1.054688 0.000000 16.875050 24.069611 -18.252789 3.661614 -18.046875 8.750001 6.456564 51.553619 8.070152 2.616707 -68.730469 2.373047 -22.548830 2.000000 -2.000000 0.000000 -92.548828 -5.390625 -29.960939 -90.501930 0.196975 -2.883131 -16.949465 22.616596 -6.985647 -2.000000 2.000000 0.000000 99.365234 -39.736328 -13.570695 85.192169 0.149895 -2.960815 -2.663177 -38.387630 -14.418761 -7.509052 0.702414 -3.911815 3.660379 -5.901469 -0.718114 4.644426 9.318293 -1.660391 20.039076 -7.285777 -32.775337 14.365932 5.584380 1.567805 52.694160 -0.823607 -12.403668 
2.559763 52.518272 8.065693 0.703125 0.341797 16.679672 25.093220 -17.318161 2.220545 -18.212893 8.935548 6.123047 51.553619 8.070152 2.616707 -68.984375 1.386719 -20.146484 2.000000 -2.000000 0.000000 -92.871094 -4.716797 -29.346506 -90.677444 0.197540 -2.873386 -17.566166 23.556215 -6.722004 -2.000000 2.000000 0.000000 97.695313 -40.312500 -11.308593 84.840889 0.140710 -2.971124 -2.652453 -38.856358 -14.896878 -5.017098 0.810124 -3.246936 4.018749 -5.900860 -0.760188 4.894267 9.158547 -1.722716 13.851517 -10.896678 -31.367691 24.002090 4.648611 2.629177 58.052933 -4.455586 -12.408755 
2.876041 52.646343 9.942801 0.351563 0.673827 16.523567 26.128061 -16.215179 0.504220 -18.398438 9.111328 5.761718 51.553619 8.070152 2.616707 -70.439453 0.839844 -16.943357 2.000000 -2.000000 0.000000 -93.134766 -4.150391 -28.632813 -90.852959 0.188355 -2.863075 -18.575397 24.699507 -6.540968 -2.000000 2.000000 0.000000 95.039063 -41.298828 -7.877538 85.016670 0.140710 -2.971124 -2.930359 -39.022934 -15.414224 -2.349291 0.887176 -1.568447 4.725955 -5.867743 -1.338870 2.465232 8.285311 -1.698721 5.545094 -15.222933 -28.259119 37.390049 4.028017 3.250852 51.118160 -11.972948 -5.250228 
3.137100 52.729202 11.800634 0.000000 1.054688 16.318310 27.337694 -14.852212 -1.312786 -18.564455 9.287110 5.244141 51.553619 8.070152 2.616707 -72.734375 0.849609 -13.417969 2.000000 -2.000000 0.000000 -93.349609 -3.681641 -27.891251 -90.677444 0.197540 -2.873386 -19.371902 25.507233 -6.263683 -2.000000 2.000000 0.000000 93.496094 -41.708984 -5.348293 85.192169 0.149895 -2.960815 -2.809314 -39.139870 -15.857761 0.468502 1.053114 -0.366201 4.399921 -5.892433 -0.784310 0.388199 6.716388 -1.461794 -3.087588 -18.373507 -25.374056 48.805904 3.393300 4.180417 40.313164 -20.319918 2.619843 
3.448981 52.736740 13.649801 -0.205078 1.386720 16.152573 28.507311 -13.244598 -3.164867 -18.740234 9.472657 4.718404 51.553619 8.070152 2.616707 -74.121094 1.123047 -9.814453 2.000000 -2.000000 0.000000 -93.486328 -3.359375 -27.460938 -90.150642 0.206160 -2.893442 -19.757132 25.661970 -6.942873 -2.000000 2.000000 0.000000 94.365234 -41.406254 -5.992787 85.518440 0.313521 -2.746008 -2.151876 -38.523533 -15.909470 3.678780 1.239960 0.255755 3.188274 -6.291558 -0.631263 -0.577981 6.422585 -1.376462 -9.609135 -19.483978 -23.960356 54.694801 2.568280 4.575428 31.836756 -26.157778 6.447804 
3.870390 52.842216 15.462166 -0.361328 1.572266 15.976563 29.465296 -11.886167 -4.883267 -18.906250 9.658202 4.199219 51.553619 8.070152 2.616707 -74.638672 1.181641 -6.650391 2.000000 -2.000000 0.000000 -93.603516 -3.066406 -27.148960 -89.262810 0.038728 -2.913063 -19.951599 25.490337 -7.890311 -2.000000 2.000000 0.000000 95.966797 -40.849609 -7.519532 85.873726 0.516416 -2.871166 -1.251357 -37.653641 -15.533506 7.000217 1.142724 0.384972 1.062084 -6.163576 -0.376352 -0.490645 6.811036 -1.995769 -13.085821 -18.085106 -24.150377 52.099350 3.124942 4.225773 25.463409 -28.179472 5.371341 
4.361228 52.736740 17.407955 -0.537109 1.572266 15.791017 30.561604 -10.267124 -6.686152 -19.082033 9.824219 3.847657 51.553619 8.070152 2.616707 -74.833984 1.025391 -3.769356 2.000000 -2.000000 0.000000 -93.730469 -2.734375 -26.768042 -88.736290 0.046784 -2.942865 -19.890596 25.283882 -8.401497 -2.000000 2.000000 0.000000 97.939453 -39.804691 -8.922268 86.421547 0.167136 -2.920705 -0.170826 -36.569916 -15.412692 10.620012 1.035114 -0.015793 -1.230597 -6.333887 -0.112178 -0.982730 7.421340 -2.592148 -14.255635 -15.460633 -26.999128 43.858192 3.935032 3.930048 17.545404 -26.599880 0.853706 
4.748395 52.601139 19.361727 -0.361328 1.748047 15.615236 31.273537 -8.989167 -8.227723 -19.082031 10.000001 3.351306 51.553619 8.070152 2.616707 -74.843750 0.869141 -1.240234 2.000000 -2.000000 0.000000 -93.945313 -2.109375 -26.045282 -88.736290 0.046784 -2.942865 -19.918186 25.675215 -8.727365 -2.000000 2.000000 0.000000 99.218750 -38.427734 -9.970702 86.952995 0.185347 -3.066323 0.211781 -36.316406 -15.206659 13.724729 1.220970 0.116338 -2.841933 -6.333050 0.096627 -1.203930 7.678679 -3.213319 -14.558353 -12.249110 -30.237473 33.302856 4.637656 3.018225 11.356987 -21.855230 -3.179015 
5.021120 52.435410 21.209505 0.000000 1.748047 15.458985 31.760242 -7.717636 -9.731247 -18.867189 10.341798 3.105469 51.553619 8.070152 2.616707 -74.707031 0.371094 1.074218 2.000000 -2.000000 0.000000 -94.140625 -1.494141 -25.537109 -88.911522 0.047913 -2.923374 -19.018267 25.968697 -8.175496 -2.000000 2.000000 0.000000 99.570313 -36.914066 -10.748053 87.656136 0.019608 -3.075910 0.052579 -36.736141 -15.483889 15.838008 1.250437 1.554695 -2.481171 -6.336660 0.033770 -1.614177 7.164490 -2.563260 -15.037801 -9.323404 -32.209312 23.962492 4.950494 2.480015 7.535623 -16.749306 -5.398440 
5.144232 52.179268 23.200773 0.351563 1.728514 15.303042 31.867897 -7.097134 -10.809640 -18.125002 10.996094 3.193359 51.553619 8.070152 2.616707 -74.404297 -0.146484 2.861330 2.000000 -2.000000 0.000000 -94.238281 -1.132813 -24.931835 -89.262810 0.038728 -2.913063 -18.725258 25.923576 -7.940783 -2.000000 2.000000 0.000000 99.873047 -34.980469 -11.450911 88.358444 0.027666 -3.046110 -0.674580 -37.643852 -15.634385 17.446142 1.602182 3.367210 -0.899458 -6.339471 -0.142999 -2.453948 6.090948 -1.866548 -15.220401 -6.614025 -32.637211 15.317455 5.447454 1.469542 6.648906 -13.619165 -6.520497 
5.234907 51.659466 25.440714 0.703125 1.572266 14.961204 31.437988 -6.885248 -11.886493 -17.001953 11.972657 3.449292 51.553619 8.070152 2.616707 -74.101563 -0.673828 4.296760 2.000000 -2.000000 0.000000 -94.375000 -0.654297 -24.609488 -89.613823 0.039857 -2.893572 -19.480431 25.714664 -8.519289 -2.000000 2.000000 0.000000 100.000000 -33.271484 -12.573715 89.060471 0.035160 -3.006564 -1.213594 -38.776672 -16.176294 18.814232 2.139204 4.873100 1.774857 -6.321560 -0.421771 -4.777499 5.055806 -1.625542 -15.105440 -4.070098 -32.023197 6.322971 5.678649 0.704694 7.845429 -11.430854 -6.751973 
5.348682 51.056801 27.516338 1.054688 1.044922 14.785335 30.794024 -6.825221 -12.668361 -15.693360 12.929689 3.964844 51.553619 8.070152 2.616707 -73.691406 -1.845703 6.337891 2.000000 -2.000000 0.000000 -94.355469 -0.732422 -24.472654 -90.150642 0.206160 -2.893442 -20.016611 25.188932 -8.776117 -2.000000 2.000000 0.000000 99.912109 -32.207031 -13.481769 89.587257 0.043781 -2.986509 -1.157556 -39.596970 -16.896376 19.244692 2.939655 5.707206 6.382303 -6.129448 -0.921598 -6.653067 5.174674 -0.664276 -14.384178 -1.581618 -30.515318 -1.599908 5.725677 -0.624021 8.196541 -9.310833 -6.163541 
5.450489 50.680126 29.051445 0.869141 0.507813 14.228496 30.293051 -6.342500 -13.157936 -14.550780 13.544923 4.396819 51.553619 8.070152 2.616707 -73.154297 -3.535156 9.082031 2.000000 -2.000000 0.000000 -94.355469 -0.693359 -24.423828 -90.326149 0.196975 -2.883131 -20.494541 25.082218 -8.953042 -2.000000 2.000000 0.000000 98.847656 -32.763672 -12.466222 89.937981 0.217575 -2.947122 -1.490880 -40.007271 -16.904959 18.763166 4.277032 6.340854 12.541127 -6.180319 -1.452742 -5.541891 5.268749 -0.459297 -13.364284 0.598805 -29.720554 -5.279154 5.718345 -0.333118 4.111243 -6.945259 -4.898257 
